<?xml version="1.0" encoding="UTF-8" standalone="no"?>
<svg
   xmlns:dc="http://purl.org/dc/elements/1.1/"
   xmlns:cc="http://creativecommons.org/ns#"
   xmlns:rdf="http://www.w3.org/1999/02/22-rdf-syntax-ns#"
   xmlns:svg="http://www.w3.org/2000/svg"
   xmlns="http://www.w3.org/2000/svg"
   xmlns:sodipodi="http://sodipodi.sourceforge.net/DTD/sodipodi-0.dtd"
   xmlns:inkscape="http://www.inkscape.org/namespaces/inkscape"
   viewBox="0 0 260 98"
   version="1.1"
   id="svg1960"
   inkscape:version="1.0.2 (e86c870879, 2021-01-15)"
   sodipodi:docname="logo-heptapod-landscape.svg"
   inkscape:export-filename="/home/franck/workspace/design/logo-heptapod-landscape.png"
   inkscape:export-xdpi="96"
   inkscape:export-ydpi="96"
   width="260"
   height="98">
  <defs
     id="defs1954" />
  <sodipodi:namedview
     id="base"
     pagecolor="#ffffff"
     bordercolor="#666666"
     borderopacity="1.0"
     inkscape:pageopacity="0.0"
     inkscape:pageshadow="2"
     inkscape:zoom="1.7375496"
     inkscape:cx="13.357632"
     inkscape:cy="82.580327"
     inkscape:document-units="mm"
     inkscape:current-layer="layer1"
     inkscape:document-rotation="0"
     showgrid="false"
     units="px"
     inkscape:window-width="1920"
     inkscape:window-height="1016"
     inkscape:window-x="0"
     inkscape:window-y="0"
     inkscape:window-maximized="1" />
  <metadata
     id="metadata1957">
    <rdf:RDF>
      <cc:Work
         rdf:about="">
        <dc:format>image/svg+xml</dc:format>
        <dc:type
           rdf:resource="http://purl.org/dc/dcmitype/StillImage" />
        <dc:title></dc:title>
      </cc:Work>
    </rdf:RDF>
  </metadata>
  <g
     inkscape:label="Calque 1"
     inkscape:groupmode="layer"
     id="layer1">
    <g
       id="g874"
       transform="matrix(2.5535865,0,0,2.5535865,-50.6871,29.712778)">
      <g
         id="g3286"
         transform="matrix(0.20983355,0,0,0.20983355,14.887748,-29.252255)">
        <path
           style="fill:#553088;fill-opacity:1;fill-rule:evenodd;stroke-width:0.527713"
           id="path6079"
           sodipodi:type="arc"
           sodipodi:cx="111.55281"
           sodipodi:cy="175.40211"
           sodipodi:rx="68.602684"
           sodipodi:ry="68.602684"
           sodipodi:start="5.7007689"
           sodipodi:end="5.6956341"
           sodipodi:open="true"
           sodipodi:arc-type="arc"
           d="M 168.84538,137.66765 A 68.602684,68.602684 0 0 1 149.36079,232.6462 68.602684,68.602684 0 0 1 54.35731,213.28355 68.602684,68.602684 0 0 1 73.597986,118.25529 68.602684,68.602684 0 0 1 168.65087,137.37396" />
        <path
           style="fill:#2d1c60;fill-opacity:1;fill-rule:evenodd;stroke-width:0.527713"
           d="m 119.71646,107.30537 a 68.602688,68.602688 0 0 0 -30.21897,10.94999 68.602688,68.602688 0 0 0 -19.24079,95.02856 68.602688,68.602688 0 0 0 48.99282,30.21656 68.602688,68.602688 0 0 0 30.11114,-10.8542 68.602688,68.602688 0 0 0 19.48472,-94.97865 l -0.194,-0.29397 a 68.602688,68.602688 0 0 0 -48.93492,-30.06842 z"
           id="path6081"
           inkscape:connector-curvature="0" />
        <path
           style="fill:#fc6d26;fill-opacity:1;fill-rule:nonzero;stroke:none;stroke-width:2.73326;stroke-linecap:round;stroke-linejoin:round;stroke-miterlimit:4;stroke-dasharray:none;stroke-dashoffset:0;stroke-opacity:1;paint-order:fill markers stroke"
           d="m 117.29589,128.73203 c -9.44188,0.006 -18.88324,0.46036 -20.75258,1.36186 -3.73866,1.80298 -24.9399,28.41895 -25.8613,32.46611 -0.92142,4.04715 6.66846,37.21776 9.25818,40.46148 1.54391,1.93384 13.05393,7.94414 22.98814,12.49235 v 8.16178 H 91.27051 v 3.25112 h 52.08946 v -3.25112 h -11.65848 v -8.15124 c 9.94226,-4.5622 21.48737,-10.60523 23.03215,-12.54448 2.5861,-3.24659 10.13951,-36.42532 9.21363,-40.47145 -0.92584,-4.04615 -22.15642,-30.63854 -25.89705,-32.43742 -1.87035,-0.89944 -11.31249,-1.34418 -20.75433,-1.33899 z"
           id="path6083"
           inkscape:connector-curvature="0" />
        <path
           sodipodi:nodetypes="cccccccccc"
           inkscape:connector-curvature="0"
           id="path6085"
           d="m 117.29589,128.73203 c 0.1602,98.1947 0,0 0.1602,98.1947 h 25.90393 v -3.25112 h -11.65849 v -8.15124 c 9.94227,-4.5622 21.48736,-10.60523 23.03214,-12.54448 2.58612,-3.24659 10.13951,-36.42532 9.21365,-40.47145 -0.92586,-4.04615 -22.15643,-30.63854 -25.89706,-32.43742 -1.87034,-0.89944 -11.31248,-1.34418 -20.75432,-1.33899 z"
           style="fill:#e24329;fill-opacity:1;fill-rule:nonzero;stroke:none;stroke-width:2.73326;stroke-linecap:round;stroke-linejoin:round;stroke-miterlimit:4;stroke-dasharray:none;stroke-dashoffset:0;stroke-opacity:1;paint-order:fill markers stroke" />
        <rect
           ry="2.2023392"
           transform="matrix(-0.68798639,0.72572359,0.72626239,0.68741759,0,0)"
           style="fill:#ffffff;fill-opacity:1;fill-rule:nonzero;stroke:none;stroke-width:1.17204;stroke-linecap:round;stroke-linejoin:round;stroke-miterlimit:4;stroke-dasharray:none;stroke-dashoffset:0;stroke-opacity:1;paint-order:fill markers stroke"
           id="rect6087"
           width="4.4046783"
           height="26.429214"
           x="68.739594"
           y="203.35571" />
        <rect
           ry="2.1994267"
           y="196.66451"
           x="54.683193"
           height="16.767498"
           width="4.3988533"
           id="rect6089"
           style="fill:#ffffff;fill-opacity:1;fill-rule:nonzero;stroke:none;stroke-width:0.932925;stroke-linecap:round;stroke-linejoin:round;stroke-miterlimit:4;stroke-dasharray:none;stroke-dashoffset:0;stroke-opacity:1;paint-order:fill markers stroke"
           transform="matrix(-0.68310386,0.73032124,0.73361891,0.6795611,0,0)" />
        <rect
           ry="2.1941638"
           transform="matrix(-0.69627673,0.71777344,0.72211752,0.6917704,0,0)"
           style="fill:#ffffff;fill-opacity:1;fill-rule:nonzero;stroke:none;stroke-width:0.698248;stroke-linecap:round;stroke-linejoin:round;stroke-miterlimit:4;stroke-dasharray:none;stroke-dashoffset:0;stroke-opacity:1;paint-order:fill markers stroke"
           id="rect6091"
           width="4.3883276"
           height="9.4152975"
           x="37.428352"
           y="191.24954" />
        <rect
           y="18.148827"
           x="194.74741"
           height="9.4681482"
           width="4.4112334"
           id="rect6093"
           style="fill:#eef0f3;fill-opacity:1;fill-rule:nonzero;stroke:none;stroke-width:0.70203;stroke-linecap:round;stroke-linejoin:round;stroke-miterlimit:4;stroke-dasharray:none;stroke-dashoffset:0;stroke-opacity:1;paint-order:fill markers stroke"
           transform="matrix(0.70009848,0.7140463,-0.72579699,0.68790895,0,0)"
           ry="2.2064803" />
        <rect
           transform="matrix(0.68363119,0.72982765,-0.73410917,0.67903146,0,0)"
           style="fill:#eef0f3;fill-opacity:1;fill-rule:nonzero;stroke:none;stroke-width:0.933605;stroke-linecap:round;stroke-linejoin:round;stroke-miterlimit:4;stroke-dasharray:none;stroke-dashoffset:0;stroke-opacity:1;paint-order:fill markers stroke"
           id="rect6095"
           width="4.4018278"
           height="16.780577"
           x="208.76576"
           y="19.151445"
           ry="2.2011421" />
        <rect
           y="26.444618"
           x="224.87601"
           height="26.415562"
           width="4.4026361"
           id="rect6097"
           style="fill:#eef0f3;fill-opacity:1;fill-rule:nonzero;stroke:none;stroke-width:1.17147;stroke-linecap:round;stroke-linejoin:round;stroke-miterlimit:4;stroke-dasharray:none;stroke-dashoffset:0;stroke-opacity:1;paint-order:fill markers stroke"
           transform="matrix(0.68763119,0.72606015,-0.72592597,0.68777284,0,0)"
           ry="2.2013183" />
        <path
           style="fill:#ffffff;fill-opacity:1;fill-rule:nonzero;stroke:none;stroke-width:10.1675;stroke-linecap:round;stroke-linejoin:round;stroke-miterlimit:4;stroke-dasharray:none;stroke-dashoffset:0;stroke-opacity:1;paint-order:fill markers stroke"
           d="m 117.57446,147.63972 c -1.21866,0 -2.19934,1.02591 -2.19934,2.30063 v 77.09246 h 4.39922 v -77.09246 c 0,-1.27472 -0.98121,-2.30063 -2.19988,-2.30063 z"
           id="path6099"
           inkscape:connector-curvature="0" />
        <path
           style="fill:#eef0f3;fill-opacity:1;fill-rule:nonzero;stroke:none;stroke-width:10.1675;stroke-linecap:round;stroke-linejoin:round;stroke-miterlimit:4;stroke-dasharray:none;stroke-dashoffset:0;stroke-opacity:1;paint-order:fill markers stroke"
           d="m 117.57446,147.63816 v 0.002 c -0.0798,0 -0.15812,0.005 -0.23564,0.0125 l 0.1664,-0.002 0.001,5.3e-4 c -0.0109,25.33554 -0.003,53.18944 -0.005,79.38173 h 2.27274 v -77.09351 c 0,-1.27472 -0.9812,-2.30115 -2.19986,-2.30115 z"
           id="path6101"
           inkscape:connector-curvature="0" />
      </g>
      <g
         aria-label="heptapod"
         transform="matrix(0.20559516,0,0,0.20914362,18.944152,-22.012294)"
         id="text3318"
         style="font-style:normal;font-variant:normal;font-weight:normal;font-stretch:normal;font-size:66.898px;line-height:1.25;font-family:ABeeZee;-inkscape-font-specification:'ABeeZee, Normal';font-variant-ligatures:normal;font-variant-caps:normal;font-variant-numeric:normal;font-variant-east-asian:normal;fill:#2d1c60;fill-opacity:1;stroke:#2d1c60;stroke-width:0;stroke-miterlimit:4;stroke-dasharray:none;stroke-opacity:1">
        <path
           d="m 189.46318,135.41633 q 1.87314,-2.74282 4.68286,-4.54906 2.87661,-1.80625 6.82359,-1.80625 5.88703,0 8.76364,3.54559 2.94351,3.5456 2.94351,9.36572 v 22.67843 h -6.02082 v -22.00945 q 0,-3.81318 -1.73935,-6.02082 -1.67245,-2.27453 -4.88355,-2.27453 -1.53865,0 -3.07731,0.60208 -1.47175,0.53519 -2.80971,1.53866 -1.33796,1.00347 -2.54213,2.34143 -1.20416,1.33796 -2.14073,2.80971 v 23.01292 h -6.02082 v -49.50453 h 6.02082 z"
           style="font-style:normal;font-variant:normal;font-weight:normal;font-stretch:normal;font-size:66.898px;font-family:ABeeZee;-inkscape-font-specification:'ABeeZee, Normal';font-variant-ligatures:normal;font-variant-caps:normal;font-variant-numeric:normal;font-variant-east-asian:normal;fill:#2d1c60;fill-opacity:1;stroke:#2d1c60;stroke-width:0;stroke-miterlimit:4;stroke-dasharray:none;stroke-opacity:1"
           id="path3455" />
        <path
           d="m 226.8591,149.7325 q 0.60208,4.88356 3.41179,7.62637 2.80972,2.74282 7.42568,2.74282 3.01041,0 5.41874,-0.60208 2.40833,-0.66898 4.61596,-1.67245 l 1.40486,5.15115 q -2.40833,1.13726 -5.41874,1.80624 -3.01041,0.66898 -6.7567,0.66898 -3.74628,0 -6.75669,-1.20416 -3.01041,-1.27106 -5.15115,-3.5456 -2.07384,-2.34143 -3.2111,-5.68633 -1.13727,-3.41179 -1.13727,-7.76016 0,-3.88009 1.13727,-7.22499 1.13726,-3.3449 3.2111,-5.75323 2.07384,-2.47522 4.95045,-3.81318 2.87662,-1.40486 6.42221,-1.40486 3.74629,0 6.556,1.27106 2.80972,1.27106 4.68286,3.4787 1.87315,2.20763 2.80972,5.15114 0.93657,2.94352 0.93657,6.22152 0,2.34143 -0.20069,4.54906 z m 9.43261,-15.45344 q -3.94698,0 -6.4891,2.67592 -2.47523,2.67592 -3.01041,7.89397 h 19.06593 q 0,-5.08425 -2.54213,-7.82707 -2.54212,-2.74282 -7.02429,-2.74282 z"
           style="font-style:normal;font-variant:normal;font-weight:normal;font-stretch:normal;font-size:66.898px;font-family:ABeeZee;-inkscape-font-specification:'ABeeZee, Normal';font-variant-ligatures:normal;font-variant-caps:normal;font-variant-numeric:normal;font-variant-east-asian:normal;fill:#2d1c60;fill-opacity:1;stroke:#2d1c60;stroke-width:0;stroke-miterlimit:4;stroke-dasharray:none;stroke-opacity:1"
           id="path3457" />
        <path
           d="m 258.03348,129.8638 q 6.15462,0 7.69327,4.88355 0.46829,-0.73588 1.40486,-1.73935 1.00347,-1.00347 2.40833,-1.87314 1.40486,-0.86968 3.2111,-1.47176 1.80625,-0.60208 4.01388,-0.60208 3.01042,0 5.75323,1.20416 2.80972,1.20417 4.88356,3.4787 2.14073,2.27453 3.4118,5.61943 1.27106,3.3449 1.27106,7.55948 0,4.14767 -1.27106,7.55947 -1.20417,3.4118 -3.3449,5.88702 -2.07384,2.40833 -4.81666,3.74629 -2.74282,1.33796 -5.75323,1.33796 -3.14421,0 -5.82013,-1.20416 -2.60902,-1.27106 -4.34837,-2.87662 v 17.99557 h -6.02082 v -40.60709 q 0,-2.27453 -1.13726,-3.2111 -1.07037,-1.00347 -2.80972,-1.00347 z m 27.89647,17.25968 q 0,-3.01041 -0.86967,-5.35184 -0.80278,-2.40833 -2.27453,-4.08078 -1.40486,-1.67245 -3.3449,-2.54212 -1.87315,-0.86968 -4.01389,-0.86968 -2.87661,0 -5.21804,1.47176 -2.27453,1.40486 -3.4787,3.07731 v 17.12589 q 1.73935,1.80624 3.94699,3.01041 2.27453,1.13726 5.01735,1.13726 2.27453,0 4.14767,-0.93657 1.87315,-0.93657 3.21111,-2.60902 1.40486,-1.73935 2.14073,-4.08078 0.73588,-2.40833 0.73588,-5.35184 z"
           style="font-style:normal;font-variant:normal;font-weight:normal;font-stretch:normal;font-size:66.898px;font-family:ABeeZee;-inkscape-font-specification:'ABeeZee, Normal';font-variant-ligatures:normal;font-variant-caps:normal;font-variant-numeric:normal;font-variant-east-asian:normal;fill:#2d1c60;fill-opacity:1;stroke:#2d1c60;stroke-width:0;stroke-miterlimit:4;stroke-dasharray:none;stroke-opacity:1"
           id="path3459" />
        <path
           d="m 303.18957,120.16359 h 4.61596 v 10.97127 h 9.63331 v 5.21804 h -9.63331 v 16.7914 q 0,1.94004 0.40139,3.278 0.46828,1.33796 1.20416,2.14074 0.73588,0.80277 1.73935,1.20416 1.07037,0.33449 2.20763,0.33449 1.67245,0 3.14421,-0.53518 1.47176,-0.53519 2.80972,-1.27106 l 1.67245,4.81665 q -1.33796,0.80278 -3.6125,1.53866 -2.27453,0.80277 -4.74975,0.80277 -5.01735,0 -7.96087,-3.278 -2.87661,-3.278 -2.87661,-9.49952 V 136.3529 h -6.02082 v -5.21804 h 6.15462 z"
           style="font-style:normal;font-variant:normal;font-weight:normal;font-stretch:normal;font-size:66.898px;font-family:ABeeZee;-inkscape-font-specification:'ABeeZee, Normal';font-variant-ligatures:normal;font-variant-caps:normal;font-variant-numeric:normal;font-variant-east-asian:normal;fill:#2d1c60;fill-opacity:1;stroke:#2d1c60;stroke-width:0;stroke-miterlimit:4;stroke-dasharray:none;stroke-opacity:1"
           id="path3461" />
        <path
           d="m 323.32579,147.45797 q 0,-3.88008 1.20417,-7.22498 1.20416,-3.4118 3.3449,-5.88703 2.20763,-2.47522 5.21804,-3.88008 3.07731,-1.40486 6.6898,-1.40486 3.01041,0 5.41874,1.07037 2.47523,1.00347 4.28147,2.54212 v -2.80971 h 5.48564 v 26.35781 q 0,2.54212 1.20416,3.3449 1.27107,0.73588 2.74282,0.73588 l -1.27106,4.68286 q -6.42221,0 -7.76017,-5.21805 -0.80277,1.07037 -1.87314,2.14074 -1.00347,1.00347 -2.34143,1.80624 -1.33796,0.80278 -3.01041,1.27107 -1.67245,0.46828 -3.67939,0.46828 -3.27801,0 -6.15462,-1.27106 -2.80972,-1.27106 -4.95045,-3.61249 -2.07384,-2.34143 -3.3449,-5.61943 -1.20417,-3.3449 -1.20417,-7.49258 z m 16.9921,12.64372 q 2.54212,0 4.81665,-1.20416 2.27453,-1.20417 3.81319,-3.14421 v -18.66454 q -1.80625,-1.27106 -4.01388,-2.00694 -2.14074,-0.80278 -4.54907,-0.80278 -2.40832,0 -4.41526,0.93658 -2.00694,0.93657 -3.4787,2.67592 -1.40486,1.67245 -2.20763,4.08077 -0.80278,2.40833 -0.80278,5.28495 0,2.80971 0.80278,5.21804 0.80277,2.34143 2.27453,4.08078 1.47175,1.67245 3.4118,2.60902 2.00694,0.93657 4.34837,0.93657 z"
           style="font-style:normal;font-variant:normal;font-weight:normal;font-stretch:normal;font-size:66.898px;font-family:ABeeZee;-inkscape-font-specification:'ABeeZee, Normal';font-variant-ligatures:normal;font-variant-caps:normal;font-variant-numeric:normal;font-variant-east-asian:normal;fill:#2d1c60;fill-opacity:1;stroke:#2d1c60;stroke-width:0;stroke-miterlimit:4;stroke-dasharray:none;stroke-opacity:1"
           id="path3463" />
        <path
           d="m 364.53478,129.8638 q 6.15462,0 7.69327,4.88355 0.46829,-0.73588 1.40486,-1.73935 1.00347,-1.00347 2.40833,-1.87314 1.40486,-0.86968 3.2111,-1.47176 1.80625,-0.60208 4.01388,-0.60208 3.01041,0 5.75323,1.20416 2.80972,1.20417 4.88355,3.4787 2.14074,2.27453 3.4118,5.61943 1.27106,3.3449 1.27106,7.55948 0,4.14767 -1.27106,7.55947 -1.20416,3.4118 -3.3449,5.88702 -2.07384,2.40833 -4.81665,3.74629 -2.74282,1.33796 -5.75323,1.33796 -3.14421,0 -5.82013,-1.20416 -2.60902,-1.27106 -4.34837,-2.87662 v 17.99557 h -6.02082 v -40.60709 q 0,-2.27453 -1.13726,-3.2111 -1.07037,-1.00347 -2.80972,-1.00347 z m 27.89647,17.25968 q 0,-3.01041 -0.86968,-5.35184 -0.80277,-2.40833 -2.27453,-4.08078 -1.40486,-1.67245 -3.3449,-2.54212 -1.87314,-0.86968 -4.01388,-0.86968 -2.87661,0 -5.21804,1.47176 -2.27453,1.40486 -3.4787,3.07731 v 17.12589 q 1.73935,1.80624 3.94698,3.01041 2.27454,1.13726 5.01735,1.13726 2.27454,0 4.14768,-0.93657 1.87314,-0.93657 3.2111,-2.60902 1.40486,-1.73935 2.14074,-4.08078 0.73588,-2.40833 0.73588,-5.35184 z"
           style="font-style:normal;font-variant:normal;font-weight:normal;font-stretch:normal;font-size:66.898px;font-family:ABeeZee;-inkscape-font-specification:'ABeeZee, Normal';font-variant-ligatures:normal;font-variant-caps:normal;font-variant-numeric:normal;font-variant-east-asian:normal;fill:#2d1c60;fill-opacity:1;stroke:#2d1c60;stroke-width:0;stroke-miterlimit:4;stroke-dasharray:none;stroke-opacity:1"
           id="path3465" />
        <path
           d="m 432.77068,147.25728 q 0,-2.60903 -0.86968,-4.95046 -0.80277,-2.34143 -2.34143,-4.08077 -1.47175,-1.73935 -3.54559,-2.74282 -2.00694,-1.07037 -4.41527,-1.07037 -5.28494,0 -8.22845,3.4787 -2.94352,3.47869 -2.94352,9.23192 0,2.60902 0.80278,5.01735 0.86967,2.34143 2.34143,4.14768 1.53865,1.73934 3.54559,2.80971 2.07384,1.00347 4.48217,1.00347 2.60902,0 4.68286,-0.93657 2.07384,-0.93657 3.4787,-2.60902 1.47175,-1.73935 2.20763,-4.08078 0.80278,-2.34143 0.80278,-5.21804 z m -28.49855,0 q 0,-4.21458 1.33796,-7.55948 1.33796,-3.4118 3.61249,-5.75323 2.34143,-2.34143 5.48564,-3.61249 3.2111,-1.27106 6.89049,-1.27106 3.61249,0 6.7567,1.27106 3.2111,1.27106 5.55253,3.61249 2.34143,2.34143 3.67939,5.68633 1.33796,3.3449 1.33796,7.49258 0,4.14768 -1.33796,7.55947 -1.27106,3.3449 -3.61249,5.75323 -2.34143,2.40833 -5.55253,3.74629 -3.14421,1.27106 -6.8236,1.27106 -3.74629,0 -6.95739,-1.33796 -3.14421,-1.33796 -5.48564,-3.74629 -2.27453,-2.40832 -3.61249,-5.75322 -1.27106,-3.3449 -1.27106,-7.35878 z"
           style="font-style:normal;font-variant:normal;font-weight:normal;font-stretch:normal;font-size:66.898px;font-family:ABeeZee;-inkscape-font-specification:'ABeeZee, Normal';font-variant-ligatures:normal;font-variant-caps:normal;font-variant-numeric:normal;font-variant-east-asian:normal;fill:#2d1c60;fill-opacity:1;stroke:#2d1c60;stroke-width:0;stroke-miterlimit:4;stroke-dasharray:none;stroke-opacity:1"
           id="path3467" />
        <path
           d="m 460.13194,165.45353 q -3.2111,0 -6.08772,-1.27106 -2.80971,-1.27106 -4.95045,-3.61249 -2.07384,-2.34143 -3.278,-5.61943 -1.20416,-3.3449 -1.20416,-7.49258 0,-3.94698 1.20416,-7.29188 1.27106,-3.4118 3.3449,-5.82013 2.14074,-2.47522 4.95045,-3.88008 2.80972,-1.40486 5.95393,-1.40486 3.47869,0 5.95392,1.40486 2.54212,1.40486 3.94698,2.87661 v -18.19626 h 6.02082 v 41.07538 q 0,2.54212 1.20416,3.3449 1.27107,0.73588 2.74282,0.73588 l -1.27106,4.68286 q -6.35531,0 -7.76017,-5.08425 -1.53865,2.14073 -4.14767,3.88008 -2.60903,1.67245 -6.62291,1.67245 z m 1.33796,-5.35184 q 2.47523,0 4.68286,-1.13726 2.27454,-1.20417 3.81319,-3.07731 v -17.25969 q -1.27106,-1.60555 -3.54559,-2.94351 -2.20764,-1.40486 -5.01735,-1.40486 -2.40833,0 -4.41527,1.00347 -1.94005,1.00347 -3.3449,2.74282 -1.40486,1.73935 -2.14074,4.14768 -0.73588,2.34143 -0.73588,5.08425 0,2.80971 0.80278,5.15114 0.80277,2.34143 2.20763,4.08078 1.47176,1.67245 3.4118,2.67592 2.00694,0.93657 4.28147,0.93657 z"
           style="font-style:normal;font-variant:normal;font-weight:normal;font-stretch:normal;font-size:66.898px;font-family:ABeeZee;-inkscape-font-specification:'ABeeZee, Normal';font-variant-ligatures:normal;font-variant-caps:normal;font-variant-numeric:normal;font-variant-east-asian:normal;fill:#2d1c60;fill-opacity:1;stroke:#2d1c60;stroke-width:0;stroke-miterlimit:4;stroke-dasharray:none;stroke-opacity:1"
           id="path3469" />
      </g>
    </g>
  </g>
</svg>
